<mxfile host="app.diagrams.net" modified="2022-07-14T09:29:35.085Z" agent="5.0 (Macintosh; Intel Mac OS X 10_15_7) AppleWebKit/537.36 (KHTML, like Gecko) Chrome/103.0.0.0 Safari/537.36" etag="oaYcELaWtb-TCpNBdeqL" version="20.1.1" type="github">
  <diagram id="fi-OBeDVoVyC95V5E4uT" name="Page-1">
    <mxGraphModel dx="2125" dy="841" grid="1" gridSize="10" guides="1" tooltips="1" connect="1" arrows="1" fold="1" page="1" pageScale="1" pageWidth="827" pageHeight="1169" math="0" shadow="0">
      <root>
        <mxCell id="0" />
        <mxCell id="1" parent="0" />
        <mxCell id="IzoT4o3ngcFtcYeD-sb7-4" style="edgeStyle=orthogonalEdgeStyle;rounded=0;orthogonalLoop=1;jettySize=auto;html=1;" edge="1" parent="1" source="IzoT4o3ngcFtcYeD-sb7-1" target="IzoT4o3ngcFtcYeD-sb7-2">
          <mxGeometry relative="1" as="geometry" />
        </mxCell>
        <mxCell id="IzoT4o3ngcFtcYeD-sb7-1" value="" style="rounded=1;whiteSpace=wrap;html=1;" vertex="1" parent="1">
          <mxGeometry x="-120" y="300" width="120" height="60" as="geometry" />
        </mxCell>
        <mxCell id="IzoT4o3ngcFtcYeD-sb7-2" value="" style="rounded=1;whiteSpace=wrap;html=1;" vertex="1" parent="1">
          <mxGeometry x="170" y="260" width="120" height="60" as="geometry" />
        </mxCell>
        <mxCell id="IzoT4o3ngcFtcYeD-sb7-3" value="" style="rounded=1;whiteSpace=wrap;html=1;" vertex="1" parent="1">
          <mxGeometry x="90" y="420" width="120" height="60" as="geometry" />
        </mxCell>
      </root>
    </mxGraphModel>
  </diagram>
</mxfile>
